<?xml version="1.0" encoding="UTF-8"?>
<svg width="394px" height="80px" viewBox="0 0 394 80" version="1.1" xmlns="http://www.w3.org/2000/svg" xmlns:xlink="http://www.w3.org/1999/xlink">
    <title>next-black</title>
    <g id="Page-1" stroke="none" stroke-width="1" fill="none" fill-rule="evenodd">
        <g id="Black-Next.js" transform="translate(-247.000000, -138.000000)" fill="#000000" fill-rule="nonzero">
            <g id="next-black" transform="translate(247.000000, 138.000000)">
                <g id="EXT-+-Type-something" transform="translate(0.000000, 0.000000)">
                    <path d="M243.196,0 L211.387,0 L252.972,80 L300.981,80 L243.196,0 Z" id="EXT"></path>
                    <path d="M61.063,15.196 L98.109,15.196 L98.109,18.392 L64.927,18.392 L64.927,42.432 L95.941,42.432 L95.941,45.628 L64.927,45.628 L64.927,72.28 L98.747,72.28 L98.747,75.476 L61.063,75.476 L61.063,15.196 Z" id="Type-something"></path>
                    <path d="M0,15.196 L4.502,15.196 L61.013,75.476 L38.333,75.476 L0,32.794 L0,15.196 Z" id="Type-something"></path>
                    <path d="M0,72.32 L0,50.28 L36.437,15.196 L43.403,15.196 L0,72.32 Z" id="Type-something"></path>
                    <path d="M128.267,15.196 L133.244,15.196 L133.244,56.548 C133.244,66.236 128.631,76.96 114.357,76.96 C105.121,76.96 97.618,72.392 94.294,64.848 L98.915,63.112 C101.341,69.208 106.991,73.4 114.357,73.4 C125.377,73.4 129.223,64.968 129.223,56.588 L129.223,54.136 C125.973,59.056 119.877,62.088 112.995,62.088 C100.254,62.088 90.073,52.264 90.073,38.428 C90.073,24.872 100.213,14.768 112.995,14.768 C119.835,14.768 125.973,17.8 129.223,22.92 L129.223,15.196 L128.267,15.196 Z M113.591,18.32 C103.737,18.32 94.582,25.992 94.582,38.428 C94.582,50.62 103.696,58.536 113.591,58.536 C123.525,58.536 132.842,50.62 132.842,38.428 C132.842,25.992 123.57,18.32 113.591,18.32 Z" id="Type-something"></path>
                    <path d="M163.743,15.196 L166.789,15.196 L166.789,35.768 L198.705,0 L202.926,0 L175.304,31.016 L204.778,75.476 L200.352,75.476 L173.667,35.288 L166.789,42.776 L166.789,75.476 L163.743,75.476 L163.743,15.196 Z" id="Type-something"></path>
                    <path d="M391.576,17.8 C390.308,16.572 388.598,16 386.446,16 C382.222,16 380.326,18.708 380.326,24.124 L380.326,33.836 L391.83,33.836 L391.83,37.292 L380.326,37.292 L380.326,75.476 L376.452,75.476 L376.452,37.292 L370.024,37.292 L370.024,33.836 L376.452,33.836 L376.452,23.776 C376.452,16.224 379.714,12.44 386.238,12.44 C387.938,12.44 389.606,12.824 391.242,13.592 L391.576,17.8 Z" id="Type-something"></path>
                </g>
            </g>
        </g>
    </g>
</svg> 